<svg xmlns="http://www.w3.org/2000/svg" width="300" height="24" fill="none"><g fill="#fff" clip-path="url(#a)"><path d="M24.693 22.306c0 .43-.146.796-.437 1.1-.292.306-.65.459-1.076.459h-3.128c-.427 0-.79-.153-1.093-.458a1.505 1.505 0 0 1-.454-1.101V4.815h-4.003c-1.054 0-1.973.3-2.758.898-.785.599-1.311 1.407-1.58 2.424L6.396 22.306a1.976 1.976 0 0 1-.74 1.118c-.38.294-.784.44-1.21.44h-3.33c-.38 0-.678-.14-.89-.422a1.092 1.092 0 0 1-.186-.967L4.21 6.577C5.331 2.284 8.964.137 15.107.137h8.207c.381 0 .706.158.975.475.27.316.404.678.404 1.084v20.61ZM37.542 8.136l-1.447 5.322h10.46V4.814H41.88c-1.054 0-1.973.3-2.758.899-.785.599-1.312 1.406-1.58 2.423ZM27.452 22.34l4.136-15.762C32.71 2.283 36.342.137 42.486.137h8.845c.404 0 .74.152 1.01.457.268.305.403.661.403 1.068v20.677c0 .43-.152.791-.454 1.084a1.512 1.512 0 0 1-1.093.441h-3.095c-.448 0-.818-.147-1.11-.44-.291-.294-.437-.667-.437-1.119v-4.169h-11.67l-1.11 4.17a1.978 1.978 0 0 1-.74 1.117c-.382.294-.785.441-1.211.441h-3.23c-.425 0-.75-.147-.975-.44-.224-.294-.28-.655-.168-1.085ZM69.997 4.679h-4.002c-1.772 0-2.994.678-3.666 2.034-.494 1.04-1.233 1.56-2.22 1.56h-1.95c-.202 0-.416-.04-.64-.12-.224-.078-.454-.271-.69-.576-.234-.305-.352-.683-.352-1.135 0-1.876.941-3.418 2.825-4.627C61.185.605 63.226 0 65.423 0h5.045c6.368 0 9.552 2.418 9.552 7.254 0 2.011-.751 3.593-2.253 4.746 1.726 1.085 2.59 2.678 2.59 4.78 0 2.553-.79 4.395-2.371 5.525C76.404 23.436 74.135 24 71.174 24h-6.289c-2.22 0-4.266-.616-6.138-1.847-1.872-1.232-2.809-2.82-2.809-4.763 0-.655.191-1.124.572-1.406.382-.283.751-.424 1.11-.424h1.951c1.01 0 1.794.61 2.354 1.83.27.588.729 1.057 1.38 1.407.65.35 1.367.525 2.152.525h5.146c1.188 0 2.08-.191 2.673-.576.595-.384.892-1.04.892-1.966 0-.926-.297-1.582-.892-1.966-.594-.384-1.485-.576-2.673-.576h-4.238c-.426 0-.79-.153-1.093-.458a1.51 1.51 0 0 1-.454-1.102v-1.355c0-.407.146-.769.437-1.085.292-.316.639-.474 1.043-.474h3.7c1.322 0 2.292-.198 2.908-.594.617-.395.926-1.045.926-1.949 0-.904-.309-1.554-.925-1.949-.617-.395-1.587-.593-2.91-.593ZM104.202.136c.427 0 .791.153 1.093.458.303.305.455.672.455 1.102v1.559c0 .429-.152.796-.455 1.102a1.483 1.483 0 0 1-1.093.457H89.908v4.814h12.31c.426 0 .791.152 1.093.457.303.305.454.672.454 1.102v1.559c0 .43-.151.797-.454 1.102a1.482 1.482 0 0 1-1.093.457h-12.31v4.881h14.261c.426 0 .785.148 1.077.441.291.294.436.656.436 1.085v1.593c0 .43-.151.797-.454 1.101a1.483 1.483 0 0 1-1.093.458H85.267c-.426 0-.79-.152-1.093-.458a1.548 1.548 0 0 1-.454-1.134V1.662c0-.43.151-.791.454-1.085.302-.294.667-.44 1.093-.44h18.935ZM110.29.136h12.545c6.615 0 9.922 3.073 9.922 9.22s-3.307 9.22-9.922 9.22h-7.87v3.73c0 .429-.152.796-.454 1.1a1.483 1.483 0 0 1-1.093.458h-3.095a1.48 1.48 0 0 1-1.092-.458 1.505 1.505 0 0 1-.454-1.1V1.695c0-.43.145-.797.436-1.102a1.433 1.433 0 0 1 1.077-.458Zm10.662 4.678h-5.987v9.084h5.987c1.839 0 3.234-.31 4.187-.931.953-.622 1.429-1.825 1.429-3.61 0-1.786-.476-2.99-1.429-3.61-.953-.622-2.348-.933-4.187-.933ZM141.098 23.865h-3.094c-.426 0-.791-.158-1.093-.475a1.563 1.563 0 0 1-.454-1.118V1.696c0-.43.151-.802.454-1.118a1.457 1.457 0 0 1 1.093-.475h3.094c.427 0 .791.158 1.094.475.302.316.454.689.454 1.118v7.932h3.531c.964 0 1.811-.266 2.539-.796.729-.532 1.418-1.384 2.069-2.56l2.556-4.576c.583-1.062 1.367-1.593 2.354-1.593h3.801c.426 0 .678.153.757.457.078.306-.006.684-.252 1.136l-3.566 6.509c-.516.949-1.093 1.734-1.731 2.355-.64.622-1.476 1.057-2.507 1.306.718.157 1.458.615 2.22 1.372a14.833 14.833 0 0 1 2.018 2.491l4.104 6.577c.268.452.347.825.235 1.118-.112.294-.381.44-.807.44H156.2c-.426 0-.886-.152-1.379-.457-.493-.305-.875-.672-1.143-1.101l-2.893-4.61c-.695-1.13-1.39-1.978-2.086-2.543-.695-.565-1.535-.847-2.522-.847h-3.531v8.034c0 .43-.152.79-.454 1.084-.303.294-.667.44-1.094.44ZM187.579 22.305c0 .43-.145.797-.437 1.101-.291.306-.65.458-1.076.458h-3.128c-.427 0-.79-.152-1.093-.458a1.505 1.505 0 0 1-.454-1.1V4.813h-4.002c-1.054 0-1.973.3-2.758.899-.785.599-1.313 1.406-1.581 2.423l-3.767 14.17a1.98 1.98 0 0 1-.74 1.117c-.381.294-.785.441-1.211.441h-3.329c-.382 0-.679-.14-.892-.423a1.097 1.097 0 0 1-.185-.966l4.171-15.898c1.121-4.294 4.754-6.44 10.897-6.44h8.207c.381 0 .706.157.975.474.269.316.403.678.403 1.085v20.61ZM214.015 23.864h-2.892c-.426 0-.79-.152-1.094-.458a1.508 1.508 0 0 1-.453-1.1V6.95l-8.577 15.355c-.246.43-.6.797-1.059 1.101-.46.306-.903.458-1.329.458h-5.448c-.426 0-.791-.152-1.093-.458a1.505 1.505 0 0 1-.454-1.1V1.695c0-.452.145-.825.437-1.119.291-.294.661-.44 1.11-.44h2.892c.427 0 .79.146 1.093.44.303.294.454.655.454 1.085v16.576l9.35-16.542a3.42 3.42 0 0 1 1.026-1.102c.437-.305.846-.458 1.228-.458h4.842c.427 0 .786.153 1.077.458.292.305.437.672.437 1.102v20.61c0 .429-.151.796-.454 1.1a1.483 1.483 0 0 1-1.093.458ZM237.087 22.34v-8.51h-11.3v8.51c0 .429-.151.79-.454 1.083a1.514 1.514 0 0 1-1.093.441h-3.061c-.426 0-.796-.152-1.11-.458a1.478 1.478 0 0 1-.47-1.1V1.695c0-.43.151-.797.454-1.102a1.52 1.52 0 0 1 1.126-.458h3.061c.425 0 .79.153 1.093.458.303.305.454.672.454 1.102v7.457h11.3V1.696c0-.43.152-.797.455-1.102a1.485 1.485 0 0 1 1.093-.458h3.06c.449 0 .824.153 1.127.458.303.305.454.672.454 1.102v20.61c0 .429-.157.796-.471 1.1a1.536 1.536 0 0 1-1.11.458h-3.06c-.426 0-.79-.147-1.093-.44a1.45 1.45 0 0 1-.455-1.085ZM270.049 23.864h-2.892a1.48 1.48 0 0 1-1.093-.458 1.502 1.502 0 0 1-.455-1.1V6.95l-8.577 15.355c-.246.43-.599.797-1.059 1.101-.459.306-.902.458-1.328.458h-5.449c-.426 0-.791-.152-1.093-.458a1.505 1.505 0 0 1-.454-1.1V1.695c0-.452.146-.825.437-1.119.292-.294.661-.44 1.11-.44h2.892c.427 0 .791.146 1.094.44.302.294.453.655.453 1.085v16.576l9.351-16.542c.246-.43.588-.797 1.026-1.102.437-.305.846-.458 1.227-.458h4.843c.426 0 .785.153 1.077.458.291.305.436.672.436 1.102v20.61c0 .429-.151.796-.454 1.1a1.48 1.48 0 0 1-1.092.458ZM280.273 23.864h-3.095c-.426 0-.79-.157-1.092-.474a1.563 1.563 0 0 1-.454-1.119V1.697c0-.43.151-.802.454-1.119a1.455 1.455 0 0 1 1.092-.475h3.095c.426 0 .791.159 1.093.475.302.317.454.69.454 1.119v7.932h3.532c.964 0 1.81-.266 2.539-.797.729-.531 1.418-1.384 2.068-2.56l2.556-4.575c.583-1.063 1.368-1.594 2.355-1.594h3.801c.425 0 .677.153.755.458.08.306-.005.684-.251 1.136l-3.566 6.508c-.515.95-1.093 1.734-1.732 2.356-.639.621-1.474 1.056-2.505 1.305.718.158 1.457.615 2.22 1.373a14.827 14.827 0 0 1 2.017 2.49l4.104 6.577c.269.452.347.825.236 1.118-.113.294-.381.441-.808.441h-3.767c-.426 0-.885-.152-1.379-.458-.493-.304-.874-.671-1.144-1.1l-2.892-4.61c-.695-1.13-1.39-1.978-2.085-2.544-.695-.564-1.536-.846-2.522-.846h-3.532v8.033c0 .43-.152.791-.454 1.084a1.51 1.51 0 0 1-1.093.441Z"/></g><defs><clipPath id="a"><path fill="#fff" d="M0 0h300v24H0z"/></clipPath></defs></svg>