<svg xmlns="http://www.w3.org/2000/svg" width="300" height="24" fill="none"><g fill="#fff" clip-path="url(#a)"><path d="M24.7 22.3a1.54 1.54 0 0 1-1.52 1.56h-3.13c-.42 0-.79-.15-1.1-.45a1.5 1.5 0 0 1-.45-1.1V4.8h-4a4.35 4.35 0 0 0-4.34 3.32L6.4 22.32c-.12.45-.36.82-.74 1.11-.38.3-.79.44-1.21.44H1.12c-.38 0-.68-.14-.9-.42a1.1 1.1 0 0 1-.18-.96l4.17-15.9C5.33 2.28 8.96.14 15.11.14h8.2c.39 0 .71.15.98.47.27.32.4.68.4 1.09v20.6ZM37.54 8.14l-1.44 5.32h10.45V4.8h-4.67a4.35 4.35 0 0 0-4.34 3.32Zm-10.09 14.2L31.6 6.58C32.7 2.28 36.34.14 42.49.14h8.84c.4 0 .74.15 1.01.45.27.3.4.67.4 1.07v20.68c0 .43-.15.79-.45 1.08-.3.3-.67.44-1.1.44H48.1a1.5 1.5 0 0 1-1.55-1.55v-4.17H34.88l-1.1 4.17c-.12.45-.36.82-.75 1.11-.38.3-.78.44-1.2.44h-3.24c-.42 0-.75-.14-.97-.44-.22-.29-.28-.65-.17-1.08ZM70 4.68h-4c-1.78 0-3 .68-3.67 2.03-.5 1.04-1.23 1.56-2.22 1.56h-1.95c-.2 0-.42-.04-.64-.12a1.62 1.62 0 0 1-.69-.57 1.8 1.8 0 0 1-.35-1.14c0-1.87.94-3.42 2.82-4.63a11.12 11.12 0 0 1 6.12-1.8h5.05c6.37 0 9.55 2.4 9.55 7.25 0 2-.75 3.59-2.25 4.74a5.3 5.3 0 0 1 2.59 4.78c0 2.55-.8 4.4-2.37 5.53C76.4 23.44 74.13 24 71.17 24H64.9c-2.22 0-4.27-.62-6.14-1.85-1.88-1.23-2.81-2.82-2.81-4.76 0-.66.19-1.12.57-1.4.38-.29.75-.43 1.11-.43h1.95c1.01 0 1.8.61 2.35 1.83.27.59.73 1.06 1.38 1.4.65.36 1.37.53 2.16.53h5.14c1.2 0 2.08-.19 2.68-.57.6-.39.89-1.04.89-1.97 0-.93-.3-1.58-.9-1.97a4.98 4.98 0 0 0-2.67-.57h-4.24c-.42 0-.79-.16-1.09-.46a1.5 1.5 0 0 1-.45-1.1v-1.36c0-.4.14-.77.43-1.08.3-.32.64-.48 1.05-.48H70c1.32 0 2.29-.2 2.9-.59.62-.4.93-1.04.93-1.95 0-.9-.3-1.55-.92-1.95-.62-.4-1.59-.6-2.91-.6ZM104.2.14c.43 0 .8.15 1.1.45.3.3.45.68.45 1.1v1.56c0 .43-.15.8-.45 1.1-.3.31-.67.46-1.1.46H89.9v4.82h12.32c.42 0 .79.15 1.1.46.3.3.45.67.45 1.1v1.56c0 .43-.16.8-.46 1.1-.3.3-.67.46-1.1.46h-12.3v4.88h14.26c.42 0 .78.14 1.08.44.29.3.43.65.43 1.08v1.6c0 .42-.15.8-.45 1.1-.3.3-.67.45-1.1.45H85.28a1.55 1.55 0 0 1-1.55-1.6V1.67c0-.43.15-.79.45-1.08.3-.3.67-.44 1.1-.44h18.93ZM110.29.14h12.54c6.62 0 9.93 3.07 9.93 9.22 0 6.14-3.31 9.22-9.92 9.22h-7.88v3.73c0 .42-.15.8-.45 1.1-.3.3-.67.45-1.1.45h-3.09c-.42 0-.79-.15-1.09-.45a1.5 1.5 0 0 1-.45-1.1V1.7c0-.43.14-.8.43-1.1.3-.31.65-.46 1.08-.46Zm10.66 4.67h-5.98v9.09h5.98c1.84 0 3.24-.31 4.19-.93.95-.63 1.43-1.83 1.43-3.61 0-1.79-.48-3-1.43-3.61-.95-.62-2.35-.94-4.19-.94ZM141.1 23.86H138c-.42 0-.79-.15-1.09-.47-.3-.32-.45-.69-.45-1.12V1.7c0-.43.15-.8.45-1.12.3-.32.67-.48 1.1-.48h3.09c.43 0 .79.16 1.1.48.3.31.45.69.45 1.12v7.93h3.53a4.2 4.2 0 0 0 2.54-.8 7.76 7.76 0 0 0 2.06-2.56l2.56-4.57c.58-1.07 1.37-1.6 2.35-1.6h3.8c.43 0 .68.16.76.46.08.3 0 .68-.25 1.14l-3.56 6.5a9.78 9.78 0 0 1-1.74 2.36 5.3 5.3 0 0 1-2.5 1.3c.72.16 1.46.62 2.22 1.38.76.76 1.43 1.59 2.02 2.49l4.1 6.58c.27.45.35.82.23 1.11-.1.3-.38.44-.8.44h-3.77a3.46 3.46 0 0 1-2.52-1.56l-2.9-4.6a10.02 10.02 0 0 0-2.08-2.55 3.87 3.87 0 0 0-2.52-.84h-3.53v8.03c0 .43-.16.8-.46 1.08-.3.3-.66.44-1.1.44ZM187.58 22.3c0 .43-.15.8-.44 1.1-.29.31-.65.46-1.07.46h-3.13c-.43 0-.8-.15-1.1-.45a1.5 1.5 0 0 1-.45-1.1V4.8h-4a4.34 4.34 0 0 0-4.34 3.32l-3.77 14.18c-.1.45-.36.82-.74 1.11-.38.3-.78.44-1.2.44H164c-.38 0-.68-.14-.89-.42a1.1 1.1 0 0 1-.18-.97l4.17-15.9c1.12-4.29 4.75-6.43 10.9-6.43h8.2c.38 0 .7.15.98.47.26.32.4.68.4 1.09v20.6ZM214.01 23.86h-2.89c-.42 0-.79-.15-1.1-.45a1.5 1.5 0 0 1-.44-1.1V6.95L201 22.31c-.25.42-.6.8-1.06 1.1-.46.3-.9.45-1.33.45h-5.45c-.42 0-.79-.15-1.09-.45a1.5 1.5 0 0 1-.45-1.1V1.7a1.5 1.5 0 0 1 1.55-1.56h2.88c.43 0 .8.14 1.1.44.3.3.45.65.45 1.08v16.58l9.35-16.54c.25-.43.6-.8 1.03-1.1.44-.31.84-.46 1.23-.46h4.84c.42 0 .78.15 1.07.45.3.3.44.68.44 1.1v20.62c0 .42-.15.8-.45 1.1-.3.3-.67.45-1.1.45ZM237.09 22.34v-8.5h-11.3v8.5c0 .43-.15.79-.46 1.08-.3.3-.66.44-1.09.44h-3.06c-.43 0-.8-.15-1.11-.45-.31-.3-.47-.68-.47-1.1V1.7c0-.43.15-.8.45-1.1.3-.31.68-.46 1.13-.46h3.06c.43 0 .79.15 1.1.45.3.3.45.68.45 1.1v7.46h11.3V1.7c0-.43.15-.8.45-1.1.3-.31.67-.46 1.1-.46h3.06c.44 0 .82.15 1.12.45.3.3.46.68.46 1.1v20.62c0 .42-.16.8-.47 1.1-.32.3-.69.45-1.12.45h-3.06c-.42 0-.78-.14-1.09-.44-.3-.29-.45-.65-.45-1.08ZM270.05 23.86h-2.9c-.42 0-.78-.15-1.09-.45a1.5 1.5 0 0 1-.45-1.1V6.95l-8.58 15.36c-.24.42-.6.8-1.06 1.1-.46.3-.9.45-1.32.45h-5.45c-.43 0-.8-.15-1.1-.45a1.5 1.5 0 0 1-.45-1.1V1.7A1.5 1.5 0 0 1 249.2.14h2.89c.42 0 .79.14 1.1.44.3.3.44.65.44 1.08v16.58L263 1.7c.24-.43.58-.8 1.02-1.1.44-.31.85-.46 1.23-.46h4.84c.43 0 .79.15 1.08.45.29.3.44.68.44 1.1v20.62c0 .42-.16.8-.46 1.1-.3.3-.66.45-1.1.45ZM280.27 23.86h-3.1c-.42 0-.78-.15-1.08-.47-.3-.32-.46-.69-.46-1.12V1.7c0-.43.15-.8.46-1.12.3-.32.66-.48 1.09-.48h3.1c.42 0 .78.16 1.09.48.3.31.45.69.45 1.12v7.93h3.53a4.2 4.2 0 0 0 2.54-.8 7.75 7.75 0 0 0 2.07-2.56l2.56-4.57c.58-1.07 1.36-1.6 2.35-1.6h3.8c.43 0 .68.16.76.46.08.3 0 .68-.25 1.14l-3.57 6.5a9.73 9.73 0 0 1-1.73 2.36 5.28 5.28 0 0 1-2.5 1.3c.71.16 1.45.62 2.21 1.38.76.75 1.44 1.58 2.02 2.49l4.1 6.58c.27.45.35.82.24 1.11-.11.3-.38.44-.8.44h-3.78a3.48 3.48 0 0 1-2.52-1.56l-2.9-4.6a10.04 10.04 0 0 0-2.08-2.55 3.87 3.87 0 0 0-2.52-.84h-3.53v8.03c0 .43-.15.79-.45 1.08-.3.3-.67.44-1.1.44Z"/></g><defs><clipPath id="a"><path fill="#fff" d="M0 0h300v24H0z"/></clipPath></defs></svg>